# xmcd
#
# Track frame offsets:
#	150
#	11939
#	24884
#	41283
#	55552
#	68072
#	84638
#	97546
#	107472
#	122874
#	140080
#	156162
#	172490
#	186297
#	197087
#	206161
#
# Disc length: 2944 seconds
#
# Revision: 0
# Processed by: cddbd v1.5.2PL0 Copyright (c) Steve Scherf et al.
# Submitted via: audiograbber 1.83.01
#
DISCID=d80b7e10
DTITLE=Lynn Anderson - Country Girl
DYEAR=1991
DGENRE=Country
TTITLE0=Listen to a Country Song
TTITLE1=Top of the World
TTITLE2=I Was Country When Country Wasn't Cool
TTITLE3=Two Doors Down
TTITLE4=Stand By Your Man
TTITLE5=When I Dream
TTITLE6=I Fall To Pieces
TTITLE7=Snowbird
TTITLE8=Desperado
TTITLE9=Blue Bayou
TTITLE10=You Needed Me
TTITLE11=The Devil Went Down to Georgia
TTITLE12=Talking in Your Sleep
TTITLE13=Heartbreak Hotel
TTITLE14=Rocky Top
TTITLE15=Gone at Last
EXTD=
EXTT0=
EXTT1=
EXTT2=
EXTT3=
EXTT4=
EXTT5=
EXTT6=
EXTT7=
EXTT8=
EXTT9=
EXTT10=
EXTT11=
EXTT12=
EXTT13=
EXTT14=
EXTT15=
PLAYORDER=
